<svg width="26" height="26" viewBox="0 0 26 26" fill="none" xmlns="http://www.w3.org/2000/svg">
<path d="M10.7811 6.77091C10.3155 6.77084 9.8801 6.77077 9.52442 6.8239C9.12261 6.88392 8.70983 7.02582 8.37988 7.39244C8.06095 7.7468 7.94836 8.16907 7.89955 8.57243C7.85393 8.94946 7.85396 9.41683 7.854 9.94459L7.854 10.5626C7.854 11.0113 8.21777 11.3751 8.6665 11.3751C9.11524 11.3751 9.479 11.0113 9.479 10.5626V9.99082C9.479 9.40267 9.48041 9.0352 9.51278 8.76763C9.52797 8.6421 9.54696 8.56977 9.56231 8.52831C9.57526 8.49334 9.58451 8.48308 9.58758 8.47967L9.58846 8.47865C9.58994 8.47687 9.59102 8.47557 9.60079 8.4711C9.6188 8.46287 9.66499 8.44593 9.7645 8.43107C9.98562 8.39804 10.297 8.39591 10.8332 8.39591H12.1873V17.6042H10.2915C9.84277 17.6042 9.479 17.968 9.479 18.4167C9.479 18.8655 9.84277 19.2292 10.2915 19.2292H16.2498C16.6986 19.2292 17.0623 18.8655 17.0623 18.4167C17.0623 17.968 16.6986 17.6042 16.2498 17.6042H13.8123V8.39591H15.1665C15.7026 8.39591 16.0141 8.39804 16.2352 8.43107C16.3347 8.44593 16.3809 8.46287 16.3989 8.4711C16.4087 8.47557 16.4097 8.47687 16.4112 8.47865L16.4119 8.47951C16.415 8.48291 16.4244 8.49334 16.4374 8.52831C16.4527 8.56977 16.4717 8.6421 16.4869 8.76763C16.5193 9.0352 16.5207 9.40267 16.5207 9.99082V10.5626C16.5207 11.0113 16.8844 11.3751 17.3332 11.3751C17.7819 11.3751 18.1457 11.0113 18.1457 10.5626L18.1457 9.94457C18.1457 9.41683 18.1457 8.94945 18.1001 8.57243C18.0513 8.16907 17.9387 7.7468 17.6198 7.39244C17.2898 7.02582 16.8771 6.88392 16.4753 6.8239C16.1196 6.77077 15.6842 6.77084 15.2185 6.77091H10.7811Z" fill="white"/>
<path fill-rule="evenodd" clip-rule="evenodd" d="M12.9377 1.35425C10.4369 1.35423 8.47713 1.35422 6.94802 1.55981C5.38289 1.77023 4.14786 2.20935 3.17849 3.17873C2.20911 4.14811 1.76999 5.38313 1.55956 6.94826C1.35398 8.47737 1.35399 10.4372 1.354 12.9379V13.0622C1.35399 15.563 1.35398 17.5228 1.55956 19.0519C1.76999 20.617 2.20911 21.8521 3.17849 22.8214C4.14786 23.7908 5.38289 24.2299 6.94802 24.4404C8.47713 24.6459 10.4369 24.6459 12.9377 24.6459H13.062C15.5628 24.6459 17.5225 24.6459 19.0517 24.4404C20.6168 24.2299 21.8518 23.7908 22.8212 22.8214C23.7906 21.8521 24.2297 20.617 24.4401 19.0519C24.6457 17.5228 24.6457 15.563 24.6457 13.0622V12.9379C24.6457 10.4372 24.6457 8.47737 24.4401 6.94826C24.2297 5.38313 23.7906 4.14811 22.8212 3.17873C21.8518 2.20935 20.6168 1.77023 19.0517 1.55981C17.5225 1.35422 15.5628 1.35423 13.062 1.35425H12.9377ZM4.32753 4.32778C4.94466 3.71065 5.77961 3.35652 7.16455 3.17032C8.57286 2.98097 10.4234 2.97925 12.9998 2.97925C15.5762 2.97925 17.4268 2.98097 18.8351 3.17032C20.2201 3.35652 21.055 3.71065 21.6721 4.32778C22.2893 4.94491 22.6434 5.77985 22.8296 7.16479C23.0189 8.5731 23.0207 10.4237 23.0207 13.0001C23.0207 15.5765 23.0189 17.4271 22.8296 18.8354C22.6434 20.2203 22.2893 21.0553 21.6721 21.6724C21.055 22.2895 20.2201 22.6436 18.8351 22.8298C17.4268 23.0192 15.5762 23.0209 12.9998 23.0209C10.4234 23.0209 8.57286 23.0192 7.16455 22.8298C5.77961 22.6436 4.94466 22.2895 4.32753 21.6724C3.71041 21.0553 3.35627 20.2203 3.17007 18.8354C2.98073 17.4271 2.979 15.5765 2.979 13.0001C2.979 10.4237 2.98073 8.5731 3.17007 7.16479C3.35627 5.77985 3.71041 4.94491 4.32753 4.32778Z" fill="white"/>
</svg>
