<svg width="26" height="26" viewBox="0 0 26 26" fill="none" xmlns="http://www.w3.org/2000/svg">
<path fill-rule="evenodd" clip-rule="evenodd" d="M16.7786 1.54987C17.1193 1.8419 17.1588 2.35483 16.8667 2.69553L14.3021 5.68759L17.3926 5.68759C18.8742 5.68757 20.0683 5.68755 21.0076 5.81383C21.9827 5.94493 22.8037 6.2254 23.4558 6.87747C24.1079 7.52955 24.3883 8.35058 24.5194 9.3257C24.6457 10.2649 24.6457 11.4591 24.6457 12.9407V17.3929C24.6457 18.8744 24.6457 20.0686 24.5194 21.0078C24.3883 21.9829 24.1079 22.804 23.4558 23.4561C22.8037 24.1081 21.9827 24.3886 21.0076 24.5197C20.0684 24.646 18.8742 24.646 17.3926 24.6459L8.60706 24.6459C7.12551 24.646 5.93132 24.646 4.99211 24.5197C4.01699 24.3886 3.19596 24.1081 2.54388 23.4561C1.89181 22.804 1.61134 21.9829 1.48024 21.0078C1.35396 20.0686 1.35398 18.8744 1.354 17.3929L1.354 12.9406C1.35398 11.4591 1.35396 10.2649 1.48024 9.3257C1.61134 8.35058 1.89181 7.52955 2.54388 6.87747C3.19596 6.2254 4.01699 5.94493 4.99211 5.81383C5.93132 5.68755 7.1255 5.68757 8.60705 5.68759L11.6976 5.68759L9.13294 2.69553C8.84091 2.35483 8.88037 1.8419 9.22107 1.54987C9.56177 1.25784 10.0747 1.29729 10.3667 1.638L12.9998 4.70995L15.6329 1.63799C15.925 1.29729 16.4379 1.25784 16.7786 1.54987ZM18.1457 7.31344L18.1457 23.0201C19.2786 23.0166 20.1234 22.9989 20.791 22.9092C21.586 22.8023 22.0069 22.6068 22.3067 22.307C22.6066 22.0072 22.8021 21.5862 22.9089 20.7913C23.0189 19.973 23.0207 18.8885 23.0207 17.3334V13.0001C23.0207 11.4451 23.0189 10.3605 22.9089 9.54222C22.8021 8.7473 22.6066 8.32635 22.3067 8.02652C22.0069 7.72669 21.586 7.53121 20.791 7.42434C20.1234 7.33458 19.2786 7.3169 18.1457 7.31344ZM16.5207 23.0209L16.5207 7.31259L8.6665 7.3126C7.11147 7.3126 6.02693 7.31432 5.20864 7.42434C4.41371 7.53121 3.99276 7.7267 3.69293 8.02652C3.39311 8.32635 3.19762 8.7473 3.09075 9.54223C2.98073 10.3605 2.97901 11.4451 2.97901 13.0001L2.97901 17.3334C2.97901 18.8885 2.98073 19.973 3.09075 20.7913C3.19762 21.5862 3.39311 22.0072 3.69293 22.307C3.99276 22.6068 4.41371 22.8023 5.20864 22.9092C6.02693 23.0192 7.11147 23.0209 8.66651 23.0209L16.5207 23.0209Z" fill="white"/>
<path d="M21.6665 17.3334C21.6665 16.7351 21.1815 16.2501 20.5832 16.2501C19.9849 16.2501 19.4998 16.7351 19.4998 17.3334C19.4998 17.9317 19.9849 18.4168 20.5832 18.4168C21.1815 18.4168 21.6665 17.9317 21.6665 17.3334Z" fill="white"/>
<path d="M21.6665 13.0001C21.6665 12.4018 21.1815 11.9168 20.5832 11.9168C19.9849 11.9168 19.4998 12.4018 19.4998 13.0001C19.4998 13.5984 19.9849 14.0834 20.5832 14.0834C21.1815 14.0834 21.6665 13.5984 21.6665 13.0001Z" fill="white"/>
</svg>
