<svg width="26" height="26" viewBox="0 0 26 26" fill="none" xmlns="http://www.w3.org/2000/svg">
<path d="M20.0593 19.6699L17.9193 15.3999L15.7793 19.6699" stroke="white" stroke-width="1.5" stroke-linecap="round" stroke-linejoin="round"/>
<path d="M16.1699 18.9097H19.6899" stroke="white" stroke-width="1.5" stroke-linecap="round" stroke-linejoin="round"/>
<path d="M17.9198 23.0001C15.1198 23.0001 12.8398 20.73 12.8398 17.92C12.8398 15.12 15.1098 12.8401 17.9198 12.8401C20.7198 12.8401 22.9998 15.11 22.9998 17.92C22.9998 20.73 20.7298 23.0001 17.9198 23.0001Z" stroke="white" stroke-width="1.5" stroke-linecap="round" stroke-linejoin="round"/>
<path d="M6.02 3H9.94C12.01 3 13.01 4.00002 12.96 6.02002V9.94C13.01 12.01 12.01 13.01 9.94 12.96H6.02C4 13 3 12 3 9.92999V6.01001C3 4.00001 4 3 6.02 3Z" stroke="white" stroke-width="1.5" stroke-linecap="round" stroke-linejoin="round"/>
<path d="M10.0092 6.8501H5.94922" stroke="white" stroke-width="1.5" stroke-linecap="round" stroke-linejoin="round"/>
<path d="M7.96875 6.16992V6.84991" stroke="white" stroke-width="1.5" stroke-linecap="round" stroke-linejoin="round"/>
<path d="M8.98946 6.83984C8.98946 8.58984 7.61945 10.0098 5.93945 10.0098" stroke="white" stroke-width="1.5" stroke-linecap="round" stroke-linejoin="round"/>
<path d="M10.0101 10.01C9.28015 10.01 8.62016 9.62 8.16016 9" stroke="white" stroke-width="1.5" stroke-linecap="round" stroke-linejoin="round"/>
<path d="M3 16C3 19.87 6.13 23 10 23L8.95 21.25" stroke="white" stroke-width="1.5" stroke-linecap="round" stroke-linejoin="round"/>
<path d="M23 10C23 6.13 19.87 3 16 3L17.05 4.75" stroke="white" stroke-width="1.5" stroke-linecap="round" stroke-linejoin="round"/>
</svg>
