<svg width="26" height="26" viewBox="0 0 26 26" fill="none" xmlns="http://www.w3.org/2000/svg">
<!-- Rounded rectangle (screen) -->
<path fill-rule="evenodd" clip-rule="evenodd" d="M10.7721 3.52075H15.2276C17.2185 3.52074 18.7955 3.52072 20.0296 3.68665C21.2997 3.85741 22.3278 4.21721 23.1385 5.02793C23.9492 5.83866 24.309 6.86669 24.4798 8.13681C24.6457 9.37095 24.6457 10.9479 24.6457 12.9388V13.061C24.6457 15.0519 24.6457 16.6289 24.4798 17.863C24.309 19.1332 23.9492 20.1612 23.1385 20.9719C22.3278 21.7826 21.2997 22.1424 20.0296 22.3132C18.7955 22.4791 17.2186 22.4791 15.2277 22.4791H10.7721C8.78117 22.4791 7.2042 22.4791 5.97006 22.3132C4.69994 22.1424 3.67191 21.7826 2.86118 20.9719C2.05046 20.1612 1.69066 19.1332 1.5199 17.863C1.35397 16.6289 1.35399 15.0519 1.354 13.061V12.9388C1.35399 10.9479 1.35397 9.37096 1.5199 8.13681C1.69066 6.86669 2.05046 5.83866 2.86118 5.02793C3.67191 4.21721 4.69994 3.85741 5.97006 3.68665C7.20421 3.52072 8.78115 3.52074 10.7721 3.52075ZM6.18659 5.29716C5.09666 5.4437 4.46871 5.7185 4.01023 6.17698C3.55176 6.63546 3.27695 7.26341 3.13041 8.35334C2.98073 9.46664 2.979 10.9342 2.979 12.9999C2.979 15.0656 2.98073 16.5332 3.13041 17.6465C3.27695 18.7364 3.55176 19.3644 4.01023 19.8229C4.46871 20.2813 5.09666 20.5561 6.18659 20.7027C7.29989 20.8524 8.76745 20.8541 10.8332 20.8541H15.1665C17.2322 20.8541 18.6998 20.8524 19.8131 20.7027C20.903 20.5561 21.531 20.2813 21.9894 19.8229C22.4479 19.3644 22.7227 18.7364 22.8693 17.6465C23.0189 16.5332 23.0207 15.0656 23.0207 12.9999C23.0207 10.9342 23.0189 9.46664 22.8693 8.35334C22.7227 7.26341 22.4479 6.63546 21.9894 6.17698C21.531 5.7185 20.903 5.4437 19.8131 5.29716C18.6998 5.14748 17.2322 5.14575 15.1665 5.14575H10.8332C8.76745 5.14575 7.29989 5.14748 6.18659 5.29716Z" fill="white"/>
<!-- Play triangle centered -->
<path d="M10.8 8.5C10.3 8.2 9.75 8.56 9.75 9.15V16.85C9.75 17.44 10.3 17.8 10.8 17.5L17.25 13.35C17.75 13.05 17.75 12.95 17.25 12.65L10.8 8.5Z" fill="white"/>
</svg>
